<svg width="532" height="255" viewBox="0 0 532 255" fill="none" xmlns="http://www.w3.org/2000/svg">
<path opacity="0.3" d="M180.5 120.25L171.25 166H148L142 196H84.75L90.75 166H-9.49949e-08L7.5 128.5L101.25 21H163.75L79.75 120.25H102.75L108 93.5H162.5L157.25 120.25H180.5ZM256.729 200C215.729 200 188.979 175 188.979 131.5C188.979 65.5 228.979 17 283.729 17C324.729 17 351.479 42 351.479 85.5C351.479 151.5 311.479 200 256.729 200ZM262.729 152.75C283.229 152.75 292.479 110.25 292.479 87C292.479 69.75 286.229 64.25 277.729 64.25C257.229 64.25 247.979 106.75 247.979 130C247.979 147.25 254.229 152.75 262.729 152.75ZM531.574 120.25L522.324 166H499.074L493.074 196H435.824L441.824 166H351.074L358.574 128.5L452.324 21H514.824L430.824 120.25H453.824L459.074 93.5H513.574L508.324 120.25H531.574Z" fill="white"/>
<path d="M180.5 103.25L171.25 149H148L142 179H84.75L90.75 149H-9.49949e-08L7.5 111.5L101.25 3.99999H163.75L79.75 103.25H102.75L108 76.5H162.5L157.25 103.25H180.5ZM256.729 183C215.729 183 188.979 158 188.979 114.5C188.979 48.5 228.979 -5.126e-06 283.729 -5.126e-06C324.729 -5.126e-06 351.479 25 351.479 68.5C351.479 134.5 311.479 183 256.729 183ZM262.729 135.75C283.229 135.75 292.479 93.25 292.479 70C292.479 52.75 286.229 47.25 277.729 47.25C257.229 47.25 247.979 89.75 247.979 113C247.979 130.25 254.229 135.75 262.729 135.75ZM531.574 103.25L522.324 149H499.074L493.074 179H435.824L441.824 149H351.074L358.574 111.5L452.324 3.99999H514.824L430.824 103.25H453.824L459.074 76.5H513.574L508.324 103.25H531.574Z" fill="white"/>
<mask id="path-3-outside-1_20_47" maskUnits="userSpaceOnUse" x="146.5" y="222" width="241" height="31" fill="black">
<rect fill="white" x="146.5" y="222" width="241" height="31"/>
<path d="M155.802 225C161.082 225 164.262 227.64 164.262 232.08C164.262 236.49 161.082 239.13 155.802 239.13H149.802V246H148.272V225H155.802ZM155.802 237.75C160.302 237.75 162.702 235.68 162.702 232.08C162.702 228.45 160.302 226.38 155.802 226.38H149.802V237.75H155.802ZM174.078 230.22C177.948 230.22 180.108 232.2 180.108 236.07V246H178.668V243.21C177.678 245.01 175.758 246.12 173.028 246.12C169.518 246.12 167.388 244.32 167.388 241.65C167.388 239.28 168.888 237.27 173.238 237.27H178.608V236.01C178.608 233.1 177.018 231.54 173.958 231.54C171.798 231.54 169.848 232.35 168.558 233.52L167.808 232.44C169.368 231.06 171.648 230.22 174.078 230.22ZM173.238 244.89C175.878 244.89 177.708 243.63 178.608 241.38V238.44H173.268C170.028 238.44 168.888 239.79 168.888 241.59C168.888 243.63 170.478 244.89 173.238 244.89ZM198.978 230.34H200.418V244.32C200.418 249.57 197.868 251.94 192.828 251.94C189.978 251.94 187.248 251.04 185.658 249.45L186.468 248.31C188.028 249.75 190.278 250.59 192.798 250.59C196.968 250.59 198.918 248.67 198.918 244.5V241.86C197.628 244.14 195.228 245.43 192.408 245.43C187.968 245.43 184.608 242.28 184.608 237.81C184.608 233.34 187.968 230.22 192.408 230.22C195.288 230.22 197.718 231.54 198.978 233.88V230.34ZM192.528 244.08C196.248 244.08 198.948 241.5 198.948 237.81C198.948 234.12 196.248 231.57 192.528 231.57C188.838 231.57 186.138 234.12 186.138 237.81C186.138 241.5 188.838 244.08 192.528 244.08ZM220.027 238.11C220.027 238.23 219.997 238.38 219.997 238.53H206.527C206.677 242.25 209.407 244.77 213.157 244.77C215.137 244.77 216.967 244.05 218.167 242.58L219.037 243.57C217.657 245.25 215.497 246.12 213.127 246.12C208.387 246.12 205.057 242.82 205.057 238.17C205.057 233.52 208.267 230.22 212.557 230.22C216.847 230.22 220.027 233.46 220.027 238.11ZM212.557 231.54C209.227 231.54 206.797 233.94 206.557 237.36H218.557C218.347 233.97 215.887 231.54 212.557 231.54ZM248.422 225H249.952V246H248.692L234.382 227.76V246H232.852V225H234.142L248.422 243.24V225ZM262.926 246.12C258.426 246.12 255.096 242.82 255.096 238.17C255.096 233.52 258.426 230.22 262.926 230.22C267.426 230.22 270.756 233.52 270.756 238.17C270.756 242.82 267.426 246.12 262.926 246.12ZM262.926 244.77C266.526 244.77 269.226 242.1 269.226 238.17C269.226 234.24 266.526 231.57 262.926 231.57C259.326 231.57 256.626 234.24 256.626 238.17C256.626 242.1 259.326 244.77 262.926 244.77ZM282.549 243.96L283.179 245.01C282.399 245.76 281.139 246.12 279.969 246.12C277.209 246.12 275.709 244.5 275.709 241.86V231.63H272.829V230.34H275.709V226.92H277.209V230.34H282.189V231.63H277.209V241.71C277.209 243.72 278.199 244.83 280.119 244.83C281.049 244.83 281.919 244.53 282.549 243.96ZM309.588 226.38H297.078V235.35H308.268V236.73H297.078V246H295.548V225H309.588V226.38ZM319.557 246.12C315.057 246.12 311.727 242.82 311.727 238.17C311.727 233.52 315.057 230.22 319.557 230.22C324.057 230.22 327.387 233.52 327.387 238.17C327.387 242.82 324.057 246.12 319.557 246.12ZM319.557 244.77C323.157 244.77 325.857 242.1 325.857 238.17C325.857 234.24 323.157 231.57 319.557 231.57C315.957 231.57 313.257 234.24 313.257 238.17C313.257 242.1 315.957 244.77 319.557 244.77ZM344.25 230.34H345.75V246H344.31V242.64C343.29 244.83 341.16 246.12 338.4 246.12C334.41 246.12 331.86 243.87 331.86 239.49V230.34H333.36V239.37C333.36 242.91 335.25 244.77 338.52 244.77C342.06 244.77 344.25 242.4 344.25 238.68V230.34ZM359.759 230.22C363.569 230.22 366.119 232.47 366.119 236.85V246H364.619V236.97C364.619 233.43 362.729 231.57 359.549 231.57C355.859 231.57 353.609 233.94 353.609 237.66V246H352.109V230.34H353.549V233.73C354.599 231.54 356.789 230.22 359.759 230.22ZM384.744 223.74H386.244V246H384.774V242.31C383.544 244.74 381.174 246.12 378.354 246.12C373.944 246.12 370.614 242.85 370.614 238.17C370.614 233.46 373.944 230.22 378.354 230.22C381.144 230.22 383.484 231.6 384.744 233.97V223.74ZM378.444 244.77C382.044 244.77 384.744 242.1 384.744 238.17C384.744 234.24 382.044 231.57 378.444 231.57C374.844 231.57 372.144 234.24 372.144 238.17C372.144 242.1 374.844 244.77 378.444 244.77Z"/>
</mask>
<path d="M155.802 225C161.082 225 164.262 227.64 164.262 232.08C164.262 236.49 161.082 239.13 155.802 239.13H149.802V246H148.272V225H155.802ZM155.802 237.75C160.302 237.75 162.702 235.68 162.702 232.08C162.702 228.45 160.302 226.38 155.802 226.38H149.802V237.75H155.802ZM174.078 230.22C177.948 230.22 180.108 232.2 180.108 236.07V246H178.668V243.21C177.678 245.01 175.758 246.12 173.028 246.12C169.518 246.12 167.388 244.32 167.388 241.65C167.388 239.28 168.888 237.27 173.238 237.27H178.608V236.01C178.608 233.1 177.018 231.54 173.958 231.54C171.798 231.54 169.848 232.35 168.558 233.52L167.808 232.44C169.368 231.06 171.648 230.22 174.078 230.22ZM173.238 244.89C175.878 244.89 177.708 243.63 178.608 241.38V238.44H173.268C170.028 238.44 168.888 239.79 168.888 241.59C168.888 243.63 170.478 244.89 173.238 244.89ZM198.978 230.34H200.418V244.32C200.418 249.57 197.868 251.94 192.828 251.94C189.978 251.94 187.248 251.04 185.658 249.45L186.468 248.31C188.028 249.75 190.278 250.59 192.798 250.59C196.968 250.59 198.918 248.67 198.918 244.5V241.86C197.628 244.14 195.228 245.43 192.408 245.43C187.968 245.43 184.608 242.28 184.608 237.81C184.608 233.34 187.968 230.22 192.408 230.22C195.288 230.22 197.718 231.54 198.978 233.88V230.34ZM192.528 244.08C196.248 244.08 198.948 241.5 198.948 237.81C198.948 234.12 196.248 231.57 192.528 231.57C188.838 231.57 186.138 234.12 186.138 237.81C186.138 241.5 188.838 244.08 192.528 244.08ZM220.027 238.11C220.027 238.23 219.997 238.38 219.997 238.53H206.527C206.677 242.25 209.407 244.77 213.157 244.77C215.137 244.77 216.967 244.05 218.167 242.58L219.037 243.57C217.657 245.25 215.497 246.12 213.127 246.12C208.387 246.12 205.057 242.82 205.057 238.17C205.057 233.52 208.267 230.22 212.557 230.22C216.847 230.22 220.027 233.46 220.027 238.11ZM212.557 231.54C209.227 231.54 206.797 233.94 206.557 237.36H218.557C218.347 233.97 215.887 231.54 212.557 231.54ZM248.422 225H249.952V246H248.692L234.382 227.76V246H232.852V225H234.142L248.422 243.24V225ZM262.926 246.12C258.426 246.12 255.096 242.82 255.096 238.17C255.096 233.52 258.426 230.22 262.926 230.22C267.426 230.22 270.756 233.52 270.756 238.17C270.756 242.82 267.426 246.12 262.926 246.12ZM262.926 244.77C266.526 244.77 269.226 242.1 269.226 238.17C269.226 234.24 266.526 231.57 262.926 231.57C259.326 231.57 256.626 234.24 256.626 238.17C256.626 242.1 259.326 244.77 262.926 244.77ZM282.549 243.96L283.179 245.01C282.399 245.76 281.139 246.12 279.969 246.12C277.209 246.12 275.709 244.5 275.709 241.86V231.63H272.829V230.34H275.709V226.92H277.209V230.34H282.189V231.63H277.209V241.71C277.209 243.72 278.199 244.83 280.119 244.83C281.049 244.83 281.919 244.53 282.549 243.96ZM309.588 226.38H297.078V235.35H308.268V236.73H297.078V246H295.548V225H309.588V226.38ZM319.557 246.12C315.057 246.12 311.727 242.82 311.727 238.17C311.727 233.52 315.057 230.22 319.557 230.22C324.057 230.22 327.387 233.52 327.387 238.17C327.387 242.82 324.057 246.12 319.557 246.12ZM319.557 244.77C323.157 244.77 325.857 242.1 325.857 238.17C325.857 234.24 323.157 231.57 319.557 231.57C315.957 231.57 313.257 234.24 313.257 238.17C313.257 242.1 315.957 244.77 319.557 244.77ZM344.25 230.34H345.75V246H344.31V242.64C343.29 244.83 341.16 246.12 338.4 246.12C334.41 246.12 331.86 243.87 331.86 239.49V230.34H333.36V239.37C333.36 242.91 335.25 244.77 338.52 244.77C342.06 244.77 344.25 242.4 344.25 238.68V230.34ZM359.759 230.22C363.569 230.22 366.119 232.47 366.119 236.85V246H364.619V236.97C364.619 233.43 362.729 231.57 359.549 231.57C355.859 231.57 353.609 233.94 353.609 237.66V246H352.109V230.34H353.549V233.73C354.599 231.54 356.789 230.22 359.759 230.22ZM384.744 223.74H386.244V246H384.774V242.31C383.544 244.74 381.174 246.12 378.354 246.12C373.944 246.12 370.614 242.85 370.614 238.17C370.614 233.46 373.944 230.22 378.354 230.22C381.144 230.22 383.484 231.6 384.744 233.97V223.74ZM378.444 244.77C382.044 244.77 384.744 242.1 384.744 238.17C384.744 234.24 382.044 231.57 378.444 231.57C374.844 231.57 372.144 234.24 372.144 238.17C372.144 242.1 374.844 244.77 378.444 244.77Z" fill="white"/>
<path d="M149.802 239.13V238.13H148.802V239.13H149.802ZM149.802 246V247H150.802V246H149.802ZM148.272 246H147.272V247H148.272V246ZM148.272 225V224H147.272V225H148.272ZM149.802 226.38V225.38H148.802V226.38H149.802ZM149.802 237.75H148.802V238.75H149.802V237.75ZM155.802 225V226C158.287 226 160.149 226.622 161.371 227.643C162.57 228.644 163.262 230.117 163.262 232.08H164.262H165.262C165.262 229.603 164.364 227.536 162.653 226.107C160.966 224.698 158.597 224 155.802 224V225ZM164.262 232.08H163.262C163.262 234.026 162.572 235.492 161.373 236.49C160.15 237.508 158.287 238.13 155.802 238.13V239.13V240.13C158.597 240.13 160.965 239.432 162.652 238.027C164.363 236.603 165.262 234.544 165.262 232.08H164.262ZM155.802 239.13V238.13H149.802V239.13V240.13H155.802V239.13ZM149.802 239.13H148.802V246H149.802H150.802V239.13H149.802ZM149.802 246V245H148.272V246V247H149.802V246ZM148.272 246H149.272V225H148.272H147.272V246H148.272ZM148.272 225V226H155.802V225V224H148.272V225ZM155.802 237.75V238.75C158.189 238.75 160.175 238.203 161.58 237.034C163.013 235.841 163.702 234.117 163.702 232.08H162.702H161.702C161.702 233.643 161.192 234.754 160.3 235.496C159.38 236.262 157.916 236.75 155.802 236.75V237.75ZM162.702 232.08H163.702C163.702 230.031 163.015 228.299 161.581 227.101C160.176 225.927 158.189 225.38 155.802 225.38V226.38V227.38C157.916 227.38 159.379 227.868 160.299 228.636C161.19 229.381 161.702 230.499 161.702 232.08H162.702ZM155.802 226.38V225.38H149.802V226.38V227.38H155.802V226.38ZM149.802 226.38H148.802V237.75H149.802H150.802V226.38H149.802ZM149.802 237.75V238.75H155.802V237.75V236.75H149.802V237.75ZM180.108 246V247H181.108V246H180.108ZM178.668 246H177.668V247H178.668V246ZM178.668 243.21H179.668L177.792 242.728L178.668 243.21ZM178.608 237.27V238.27H179.608V237.27H178.608ZM168.558 233.52L167.737 234.09L168.386 235.026L169.23 234.261L168.558 233.52ZM167.808 232.44L167.146 231.691L166.48 232.28L166.987 233.01L167.808 232.44ZM178.608 241.38L179.537 241.751L179.608 241.573V241.38H178.608ZM178.608 238.44H179.608V237.44H178.608V238.44ZM174.078 230.22V231.22C175.853 231.22 177.076 231.673 177.853 232.417C178.623 233.152 179.108 234.318 179.108 236.07H180.108H181.108C181.108 233.952 180.513 232.193 179.235 230.971C177.965 229.757 176.173 229.22 174.078 229.22V230.22ZM180.108 236.07H179.108V246H180.108H181.108V236.07H180.108ZM180.108 246V245H178.668V246V247H180.108V246ZM178.668 246H179.668V243.21H178.668H177.668V246H178.668ZM178.668 243.21L177.792 242.728C177.01 244.149 175.466 245.12 173.028 245.12V246.12V247.12C176.05 247.12 178.346 245.871 179.544 243.692L178.668 243.21ZM173.028 246.12V245.12C171.434 245.12 170.267 244.711 169.52 244.108C168.794 243.522 168.388 242.695 168.388 241.65H167.388H166.388C166.388 243.275 167.048 244.683 168.264 245.664C169.459 246.629 171.112 247.12 173.028 247.12V246.12ZM167.388 241.65H168.388C168.388 240.682 168.687 239.892 169.338 239.326C170.01 238.742 171.201 238.27 173.238 238.27V237.27V236.27C170.925 236.27 169.192 236.803 168.026 237.817C166.839 238.848 166.388 240.248 166.388 241.65H167.388ZM173.238 237.27V238.27H178.608V237.27V236.27H173.238V237.27ZM178.608 237.27H179.608V236.01H178.608H177.608V237.27H178.608ZM178.608 236.01H179.608C179.608 234.378 179.159 232.963 178.126 231.965C177.098 230.971 175.647 230.54 173.958 230.54V231.54V232.54C175.329 232.54 176.204 232.889 176.736 233.403C177.262 233.912 177.608 234.732 177.608 236.01H178.608ZM173.958 231.54V230.54C171.558 230.54 169.366 231.437 167.886 232.779L168.558 233.52L169.23 234.261C170.33 233.263 172.039 232.54 173.958 232.54V231.54ZM168.558 233.52L169.38 232.95L168.63 231.87L167.808 232.44L166.987 233.01L167.737 234.09L168.558 233.52ZM167.808 232.44L168.471 233.189C169.829 231.988 171.865 231.22 174.078 231.22V230.22V229.22C171.431 229.22 168.908 230.132 167.146 231.691L167.808 232.44ZM173.238 244.89V245.89C174.72 245.89 176.037 245.535 177.128 244.812C178.22 244.089 179.022 243.038 179.537 241.751L178.608 241.38L177.68 241.009C177.294 241.972 176.731 242.676 176.023 243.145C175.314 243.615 174.396 243.89 173.238 243.89V244.89ZM178.608 241.38H179.608V238.44H178.608H177.608V241.38H178.608ZM178.608 238.44V237.44H173.268V238.44V239.44H178.608V238.44ZM173.268 238.44V237.44C171.533 237.44 170.172 237.798 169.231 238.565C168.254 239.362 167.888 240.467 167.888 241.59H168.888H169.888C169.888 240.913 170.092 240.443 170.495 240.115C170.934 239.757 171.764 239.44 173.268 239.44V238.44ZM168.888 241.59H167.888C167.888 242.898 168.413 244.026 169.419 244.798C170.393 245.546 171.722 245.89 173.238 245.89V244.89V243.89C171.995 243.89 171.148 243.604 170.637 243.212C170.159 242.844 169.888 242.322 169.888 241.59H168.888ZM198.978 230.34V229.34H197.978V230.34H198.978ZM200.418 230.34H201.418V229.34H200.418V230.34ZM185.658 249.45L184.843 248.871L184.353 249.56L184.951 250.157L185.658 249.45ZM186.468 248.31L187.146 247.575L186.311 246.804L185.653 247.731L186.468 248.31ZM198.918 241.86H199.918V238.062L198.047 241.368L198.918 241.86ZM198.978 233.88L198.097 234.354L199.978 233.88H198.978ZM198.978 230.34V231.34H200.418V230.34V229.34H198.978V230.34ZM200.418 230.34H199.418V244.32H200.418H201.418V230.34H200.418ZM200.418 244.32H199.418C199.418 246.798 198.816 248.396 197.811 249.386C196.803 250.379 195.209 250.94 192.828 250.94V251.94V252.94C195.487 252.94 197.687 252.316 199.215 250.811C200.745 249.304 201.418 247.092 201.418 244.32H200.418ZM192.828 251.94V250.94C190.145 250.94 187.708 250.086 186.365 248.743L185.658 249.45L184.951 250.157C186.787 251.994 189.81 252.94 192.828 252.94V251.94ZM185.658 249.45L186.473 250.029L187.283 248.889L186.468 248.31L185.653 247.731L184.843 248.871L185.658 249.45ZM186.468 248.31L185.789 249.045C187.559 250.678 190.062 251.59 192.798 251.59V250.59V249.59C190.494 249.59 188.497 248.822 187.146 247.575L186.468 248.31ZM192.798 250.59V251.59C195.016 251.59 196.854 251.081 198.126 249.818C199.399 248.555 199.918 246.722 199.918 244.5H198.918H197.918C197.918 246.448 197.461 247.66 196.717 248.399C195.971 249.139 194.749 249.59 192.798 249.59V250.59ZM198.918 244.5H199.918V241.86H198.918H197.918V244.5H198.918ZM198.918 241.86L198.047 241.368C196.956 243.296 194.913 244.43 192.408 244.43V245.43V246.43C195.543 246.43 198.299 244.984 199.788 242.352L198.918 241.86ZM192.408 245.43V244.43C188.486 244.43 185.608 241.694 185.608 237.81H184.608H183.608C183.608 242.866 187.449 246.43 192.408 246.43V245.43ZM184.608 237.81H185.608C185.608 233.931 188.481 231.22 192.408 231.22V230.22V229.22C187.455 229.22 183.608 232.749 183.608 237.81H184.608ZM192.408 230.22V231.22C194.973 231.22 197.035 232.382 198.097 234.354L198.978 233.88L199.858 233.406C198.4 230.698 195.603 229.22 192.408 229.22V230.22ZM198.978 233.88H199.978V230.34H198.978H197.978V233.88H198.978ZM192.528 244.08V245.08C196.771 245.08 199.948 242.08 199.948 237.81H198.948H197.948C197.948 240.92 195.724 243.08 192.528 243.08V244.08ZM198.948 237.81H199.948C199.948 235.711 199.175 233.886 197.827 232.586C196.482 231.29 194.62 230.57 192.528 230.57V231.57V232.57C194.156 232.57 195.504 233.125 196.439 234.026C197.371 234.924 197.948 236.219 197.948 237.81H198.948ZM192.528 231.57V230.57C188.317 230.57 185.138 233.536 185.138 237.81H186.138H187.138C187.138 234.704 189.358 232.57 192.528 232.57V231.57ZM186.138 237.81H185.138C185.138 242.077 188.311 245.08 192.528 245.08V244.08V243.08C189.365 243.08 187.138 240.923 187.138 237.81H186.138ZM219.997 238.53V239.53H220.997V238.53H219.997ZM206.527 238.53V237.53H205.486L205.528 238.57L206.527 238.53ZM218.167 242.58L218.918 241.92L218.139 241.033L217.392 241.948L218.167 242.58ZM219.037 243.57L219.81 244.205L220.349 243.548L219.788 242.91L219.037 243.57ZM206.557 237.36L205.559 237.29L205.484 238.36H206.557V237.36ZM218.557 237.36V238.36H219.621L219.555 237.298L218.557 237.36ZM220.027 238.11H219.027C219.027 238.101 219.027 238.102 219.026 238.121C219.024 238.141 219.022 238.163 219.017 238.204C219.01 238.272 218.997 238.396 218.997 238.53H219.997H220.997C220.997 238.514 220.999 238.488 221.006 238.413C221.01 238.383 221.015 238.336 221.019 238.289C221.023 238.242 221.027 238.179 221.027 238.11H220.027ZM219.997 238.53V237.53H206.527V238.53V239.53H219.997V238.53ZM206.527 238.53L205.528 238.57C205.7 242.85 208.894 245.77 213.157 245.77V244.77V243.77C209.919 243.77 207.654 241.65 207.526 238.49L206.527 238.53ZM213.157 244.77V245.77C215.374 245.77 217.515 244.96 218.942 243.212L218.167 242.58L217.392 241.948C216.419 243.14 214.899 243.77 213.157 243.77V244.77ZM218.167 242.58L217.416 243.24L218.286 244.23L219.037 243.57L219.788 242.91L218.918 241.92L218.167 242.58ZM219.037 243.57L218.264 242.935C217.111 244.34 215.26 245.12 213.127 245.12V246.12V247.12C215.734 247.12 218.203 246.16 219.81 244.205L219.037 243.57ZM213.127 246.12V245.12C210.994 245.12 209.237 244.381 208.017 243.177C206.797 241.973 206.057 240.249 206.057 238.17H205.057H204.057C204.057 240.741 204.982 242.992 206.612 244.601C208.241 246.209 210.519 247.12 213.127 247.12V246.12ZM205.057 238.17H206.057C206.057 234.025 208.865 231.22 212.557 231.22V230.22V229.22C207.669 229.22 204.057 233.015 204.057 238.17H205.057ZM212.557 230.22V231.22C216.254 231.22 219.027 233.97 219.027 238.11H220.027H221.027C221.027 232.95 217.44 229.22 212.557 229.22V230.22ZM212.557 231.54V230.54C208.661 230.54 205.833 233.387 205.559 237.29L206.557 237.36L207.554 237.43C207.761 234.493 209.792 232.54 212.557 232.54V231.54ZM206.557 237.36V238.36H218.557V237.36V236.36H206.557V237.36ZM218.557 237.36L219.555 237.298C219.314 233.415 216.448 230.54 212.557 230.54V231.54V232.54C215.325 232.54 217.379 234.525 217.559 237.422L218.557 237.36ZM248.422 225V224H247.422V225H248.422ZM249.952 225H250.952V224H249.952V225ZM249.952 246V247H250.952V246H249.952ZM248.692 246L247.906 246.617L248.206 247H248.692V246ZM234.382 227.76L235.169 227.143L233.382 224.865V227.76H234.382ZM234.382 246V247H235.382V246H234.382ZM232.852 246H231.852V247H232.852V246ZM232.852 225V224H231.852V225H232.852ZM234.142 225L234.93 224.384L234.629 224H234.142V225ZM248.422 243.24L247.635 243.856L249.422 246.14V243.24H248.422ZM248.422 225V226H249.952V225V224H248.422V225ZM249.952 225H248.952V246H249.952H250.952V225H249.952ZM249.952 246V245H248.692V246V247H249.952V246ZM248.692 246L249.479 245.383L235.169 227.143L234.382 227.76L233.596 228.377L247.906 246.617L248.692 246ZM234.382 227.76H233.382V246H234.382H235.382V227.76H234.382ZM234.382 246V245H232.852V246V247H234.382V246ZM232.852 246H233.852V225H232.852H231.852V246H232.852ZM232.852 225V226H234.142V225V224H232.852V225ZM234.142 225L233.355 225.616L247.635 243.856L248.422 243.24L249.21 242.624L234.93 224.384L234.142 225ZM248.422 243.24H249.422V225H248.422H247.422V243.24H248.422ZM262.926 246.12V245.12C258.986 245.12 256.096 242.275 256.096 238.17H255.096H254.096C254.096 243.365 257.866 247.12 262.926 247.12V246.12ZM255.096 238.17H256.096C256.096 234.065 258.986 231.22 262.926 231.22V230.22V229.22C257.866 229.22 254.096 232.975 254.096 238.17H255.096ZM262.926 230.22V231.22C266.866 231.22 269.756 234.065 269.756 238.17H270.756H271.756C271.756 232.975 267.986 229.22 262.926 229.22V230.22ZM270.756 238.17H269.756C269.756 242.275 266.866 245.12 262.926 245.12V246.12V247.12C267.986 247.12 271.756 243.365 271.756 238.17H270.756ZM262.926 244.77V245.77C267.106 245.77 270.226 242.624 270.226 238.17H269.226H268.226C268.226 241.576 265.946 243.77 262.926 243.77V244.77ZM269.226 238.17H270.226C270.226 233.716 267.106 230.57 262.926 230.57V231.57V232.57C265.946 232.57 268.226 234.764 268.226 238.17H269.226ZM262.926 231.57V230.57C258.746 230.57 255.626 233.716 255.626 238.17H256.626H257.626C257.626 234.764 259.906 232.57 262.926 232.57V231.57ZM256.626 238.17H255.626C255.626 242.624 258.746 245.77 262.926 245.77V244.77V243.77C259.906 243.77 257.626 241.576 257.626 238.17H256.626ZM282.549 243.96L283.407 243.446L282.781 242.402L281.879 243.218L282.549 243.96ZM283.179 245.01L283.873 245.731L284.447 245.179L284.037 244.496L283.179 245.01ZM275.709 231.63H276.709V230.63H275.709V231.63ZM272.829 231.63H271.829V232.63H272.829V231.63ZM272.829 230.34V229.34H271.829V230.34H272.829ZM275.709 230.34V231.34H276.709V230.34H275.709ZM275.709 226.92V225.92H274.709V226.92H275.709ZM277.209 226.92H278.209V225.92H277.209V226.92ZM277.209 230.34H276.209V231.34H277.209V230.34ZM282.189 230.34H283.189V229.34H282.189V230.34ZM282.189 231.63V232.63H283.189V231.63H282.189ZM277.209 231.63V230.63H276.209V231.63H277.209ZM282.549 243.96L281.692 244.474L282.322 245.524L283.179 245.01L284.037 244.496L283.407 243.446L282.549 243.96ZM283.179 245.01L282.486 244.289C281.955 244.8 280.982 245.12 279.969 245.12V246.12V247.12C281.297 247.12 282.844 246.72 283.873 245.731L283.179 245.01ZM279.969 246.12V245.12C278.785 245.12 278.005 244.777 277.519 244.28C277.029 243.78 276.709 242.994 276.709 241.86H275.709H274.709C274.709 243.366 275.14 244.71 276.09 245.68C277.044 246.653 278.394 247.12 279.969 247.12V246.12ZM275.709 241.86H276.709V231.63H275.709H274.709V241.86H275.709ZM275.709 231.63V230.63H272.829V231.63V232.63H275.709V231.63ZM272.829 231.63H273.829V230.34H272.829H271.829V231.63H272.829ZM272.829 230.34V231.34H275.709V230.34V229.34H272.829V230.34ZM275.709 230.34H276.709V226.92H275.709H274.709V230.34H275.709ZM275.709 226.92V227.92H277.209V226.92V225.92H275.709V226.92ZM277.209 226.92H276.209V230.34H277.209H278.209V226.92H277.209ZM277.209 230.34V231.34H282.189V230.34V229.34H277.209V230.34ZM282.189 230.34H281.189V231.63H282.189H283.189V230.34H282.189ZM282.189 231.63V230.63H277.209V231.63V232.63H282.189V231.63ZM277.209 231.63H276.209V241.71H277.209H278.209V231.63H277.209ZM277.209 241.71H276.209C276.209 242.866 276.494 243.926 277.209 244.702C277.937 245.491 278.966 245.83 280.119 245.83V244.83V243.83C279.353 243.83 278.926 243.614 278.68 243.346C278.42 243.064 278.209 242.564 278.209 241.71H277.209ZM280.119 244.83V245.83C281.258 245.83 282.379 245.463 283.22 244.702L282.549 243.96L281.879 243.218C281.46 243.597 280.841 243.83 280.119 243.83V244.83ZM309.588 226.38V227.38H310.588V226.38H309.588ZM297.078 226.38V225.38H296.078V226.38H297.078ZM297.078 235.35H296.078V236.35H297.078V235.35ZM308.268 235.35H309.268V234.35H308.268V235.35ZM308.268 236.73V237.73H309.268V236.73H308.268ZM297.078 236.73V235.73H296.078V236.73H297.078ZM297.078 246V247H298.078V246H297.078ZM295.548 246H294.548V247H295.548V246ZM295.548 225V224H294.548V225H295.548ZM309.588 225H310.588V224H309.588V225ZM309.588 226.38V225.38H297.078V226.38V227.38H309.588V226.38ZM297.078 226.38H296.078V235.35H297.078H298.078V226.38H297.078ZM297.078 235.35V236.35H308.268V235.35V234.35H297.078V235.35ZM308.268 235.35H307.268V236.73H308.268H309.268V235.35H308.268ZM308.268 236.73V235.73H297.078V236.73V237.73H308.268V236.73ZM297.078 236.73H296.078V246H297.078H298.078V236.73H297.078ZM297.078 246V245H295.548V246V247H297.078V246ZM295.548 246H296.548V225H295.548H294.548V246H295.548ZM295.548 225V226H309.588V225V224H295.548V225ZM309.588 225H308.588V226.38H309.588H310.588V225H309.588ZM319.557 246.12V245.12C315.617 245.12 312.727 242.275 312.727 238.17H311.727H310.727C310.727 243.365 314.497 247.12 319.557 247.12V246.12ZM311.727 238.17H312.727C312.727 234.065 315.617 231.22 319.557 231.22V230.22V229.22C314.497 229.22 310.727 232.975 310.727 238.17H311.727ZM319.557 230.22V231.22C323.497 231.22 326.387 234.065 326.387 238.17H327.387H328.387C328.387 232.975 324.617 229.22 319.557 229.22V230.22ZM327.387 238.17H326.387C326.387 242.275 323.497 245.12 319.557 245.12V246.12V247.12C324.617 247.12 328.387 243.365 328.387 238.17H327.387ZM319.557 244.77V245.77C323.737 245.77 326.857 242.624 326.857 238.17H325.857H324.857C324.857 241.576 322.577 243.77 319.557 243.77V244.77ZM325.857 238.17H326.857C326.857 233.716 323.737 230.57 319.557 230.57V231.57V232.57C322.577 232.57 324.857 234.764 324.857 238.17H325.857ZM319.557 231.57V230.57C315.377 230.57 312.257 233.716 312.257 238.17H313.257H314.257C314.257 234.764 316.537 232.57 319.557 232.57V231.57ZM313.257 238.17H312.257C312.257 242.624 315.377 245.77 319.557 245.77V244.77V243.77C316.537 243.77 314.257 241.576 314.257 238.17H313.257ZM344.25 230.34V229.34H343.25V230.34H344.25ZM345.75 230.34H346.75V229.34H345.75V230.34ZM345.75 246V247H346.75V246H345.75ZM344.31 246H343.31V247H344.31V246ZM344.31 242.64H345.31L343.404 242.218L344.31 242.64ZM331.86 230.34V229.34H330.86V230.34H331.86ZM333.36 230.34H334.36V229.34H333.36V230.34ZM344.25 230.34V231.34H345.75V230.34V229.34H344.25V230.34ZM345.75 230.34H344.75V246H345.75H346.75V230.34H345.75ZM345.75 246V245H344.31V246V247H345.75V246ZM344.31 246H345.31V242.64H344.31H343.31V246H344.31ZM344.31 242.64L343.404 242.218C342.569 244.011 340.823 245.12 338.4 245.12V246.12V247.12C341.497 247.12 344.012 245.649 345.217 243.062L344.31 242.64ZM338.4 246.12V245.12C336.589 245.12 335.233 244.612 334.333 243.732C333.437 242.857 332.86 241.486 332.86 239.49H331.86H330.86C330.86 241.874 331.559 243.818 332.935 245.163C334.308 246.503 336.222 247.12 338.4 247.12V246.12ZM331.86 239.49H332.86V230.34H331.86H330.86V239.49H331.86ZM331.86 230.34V231.34H333.36V230.34V229.34H331.86V230.34ZM333.36 230.34H332.36V239.37H333.36H334.36V230.34H333.36ZM333.36 239.37H332.36C332.36 241.311 332.88 242.944 333.997 244.094C335.117 245.248 336.698 245.77 338.52 245.77V244.77V243.77C337.073 243.77 336.074 243.362 335.432 242.701C334.785 242.036 334.36 240.969 334.36 239.37H333.36ZM338.52 244.77V245.77C340.522 245.77 342.235 245.093 343.443 243.803C344.643 242.521 345.25 240.734 345.25 238.68H344.25H343.25C343.25 240.346 342.762 241.604 341.983 242.437C341.21 243.262 340.059 243.77 338.52 243.77V244.77ZM344.25 238.68H345.25V230.34H344.25H343.25V238.68H344.25ZM366.119 246V247H367.119V246H366.119ZM364.619 246H363.619V247H364.619V246ZM353.609 246V247H354.609V246H353.609ZM352.109 246H351.109V247H352.109V246ZM352.109 230.34V229.34H351.109V230.34H352.109ZM353.549 230.34H354.549V229.34H353.549V230.34ZM353.549 233.73H352.549L354.45 234.162L353.549 233.73ZM359.759 230.22V231.22C361.469 231.22 362.779 231.722 363.662 232.601C364.542 233.478 365.119 234.854 365.119 236.85H366.119H367.119C367.119 234.466 366.421 232.527 365.073 231.184C363.728 229.843 361.859 229.22 359.759 229.22V230.22ZM366.119 236.85H365.119V246H366.119H367.119V236.85H366.119ZM366.119 246V245H364.619V246V247H366.119V246ZM364.619 246H365.619V236.97H364.619H363.619V246H364.619ZM364.619 236.97H365.619C365.619 235.029 365.099 233.399 363.998 232.25C362.892 231.096 361.333 230.57 359.549 230.57V231.57V232.57C360.944 232.57 361.921 232.974 362.554 233.635C363.194 234.301 363.619 235.371 363.619 236.97H364.619ZM359.549 231.57V230.57C357.484 230.57 355.722 231.238 354.476 232.524C353.235 233.807 352.609 235.599 352.609 237.66H353.609H354.609C354.609 236.001 355.107 234.748 355.913 233.916C356.716 233.087 357.923 232.57 359.549 232.57V231.57ZM353.609 237.66H352.609V246H353.609H354.609V237.66H353.609ZM353.609 246V245H352.109V246V247H353.609V246ZM352.109 246H353.109V230.34H352.109H351.109V246H352.109ZM352.109 230.34V231.34H353.549V230.34V229.34H352.109V230.34ZM353.549 230.34H352.549V233.73H353.549H354.549V230.34H353.549ZM353.549 233.73L354.45 234.162C355.308 232.374 357.108 231.22 359.759 231.22V230.22V229.22C356.469 229.22 353.89 230.706 352.647 233.298L353.549 233.73ZM384.744 223.74V222.74H383.744V223.74H384.744ZM386.244 223.74H387.244V222.74H386.244V223.74ZM386.244 246V247H387.244V246H386.244ZM384.774 246H383.774V247H384.774V246ZM384.774 242.31H385.774L383.881 241.858L384.774 242.31ZM384.744 233.97L383.861 234.439L385.744 233.97H384.744ZM384.744 223.74V224.74H386.244V223.74V222.74H384.744V223.74ZM386.244 223.74H385.244V246H386.244H387.244V223.74H386.244ZM386.244 246V245H384.774V246V247H386.244V246ZM384.774 246H385.774V242.31H384.774H383.774V246H384.774ZM384.774 242.31L383.881 241.858C382.834 243.928 380.825 245.12 378.354 245.12V246.12V247.12C381.522 247.12 384.253 245.552 385.666 242.762L384.774 242.31ZM378.354 246.12V245.12C374.508 245.12 371.614 242.31 371.614 238.17H370.614H369.614C369.614 243.39 373.379 247.12 378.354 247.12V246.12ZM370.614 238.17H371.614C371.614 234.002 374.506 231.22 378.354 231.22V230.22V229.22C373.381 229.22 369.614 232.918 369.614 238.17H370.614ZM378.354 230.22V231.22C380.789 231.22 382.781 232.409 383.861 234.439L384.744 233.97L385.627 233.501C384.186 230.791 381.498 229.22 378.354 229.22V230.22ZM384.744 233.97H385.744V223.74H384.744H383.744V233.97H384.744ZM378.444 244.77V245.77C382.623 245.77 385.744 242.624 385.744 238.17H384.744H383.744C383.744 241.576 381.464 243.77 378.444 243.77V244.77ZM384.744 238.17H385.744C385.744 233.716 382.623 230.57 378.444 230.57V231.57V232.57C381.464 232.57 383.744 234.764 383.744 238.17H384.744ZM378.444 231.57V230.57C374.264 230.57 371.144 233.716 371.144 238.17H372.144H373.144C373.144 234.764 375.423 232.57 378.444 232.57V231.57ZM372.144 238.17H371.144C371.144 242.624 374.264 245.77 378.444 245.77V244.77V243.77C375.423 243.77 373.144 241.576 373.144 238.17H372.144Z" fill="white" mask="url(#path-3-outside-1_20_47)"/>
</svg>
