<svg width="245" height="32" viewBox="0 0 245 32" fill="none" xmlns="http://www.w3.org/2000/svg">
<path opacity="0.4" d="M28.144 29L26.176 24.104H14.272L12.256 29H3.376L15.712 1.256H24.832L37.168 29H28.144ZM16.864 17.672H23.584L20.272 9.32L16.864 17.672ZM62.4033 14.504C65.4753 15.656 67.2993 18.008 67.2993 21.32C67.2993 26.168 63.1713 29 55.3953 29H39.6513V1.256H54.6273C62.3073 1.256 65.9553 4.328 65.9553 8.504C65.9553 11.096 64.7073 13.208 62.4033 14.504ZM53.4273 7.544H48.7713V12.104H53.4273C55.5873 12.104 56.6913 11.288 56.6913 9.848C56.6913 8.36 55.5873 7.544 53.4273 7.544ZM54.7233 22.712C56.8353 22.712 58.0353 21.848 58.0353 20.312C58.0353 18.728 56.8353 17.912 54.7233 17.912H48.7713V22.712H54.7233ZM85.828 29.624C76.66 29.624 69.94 23.48 69.94 15.128C69.94 6.728 76.66 0.631999 85.828 0.631999C94.996 0.631999 101.716 6.728 101.716 15.128C101.716 23.48 94.996 29.624 85.828 29.624ZM85.828 22.232C89.62 22.232 92.356 19.304 92.356 15.128C92.356 10.952 89.62 8.024 85.828 8.024C82.036 8.024 79.252 10.952 79.252 15.128C79.252 19.304 82.036 22.232 85.828 22.232ZM119.654 29.624C111.014 29.624 105.974 24.68 105.974 16.952V1.256H115.238V16.664C115.238 20.36 116.774 22.232 119.75 22.232C122.678 22.232 124.214 20.36 124.214 16.664V1.256H133.286V16.952C133.286 24.68 128.294 29.624 119.654 29.624ZM144.684 29V8.264H136.332V1.256H162.3V8.264H153.948V29H144.684ZM213.222 29H204.726L204.63 15.944L198.39 26.264H194.262L188.022 16.424V29H179.526V1.256H187.206L196.47 16.136L205.446 1.256H213.174L213.222 29ZM228.584 22.184H242.744V29H219.464V1.256H242.216V8.072H228.584V11.72H240.584V18.152H228.584V22.184Z" fill="white"/>
<path d="M25.144 31L23.176 26.104H11.272L9.256 31H0.376L12.712 3.256H21.832L34.168 31H25.144ZM13.864 19.672H20.584L17.272 11.32L13.864 19.672ZM59.4033 16.504C62.4753 17.656 64.2993 20.008 64.2993 23.32C64.2993 28.168 60.1713 31 52.3953 31H36.6513V3.256H51.6273C59.3073 3.256 62.9553 6.328 62.9553 10.504C62.9553 13.096 61.7073 15.208 59.4033 16.504ZM50.4273 9.544H45.7713V14.104H50.4273C52.5873 14.104 53.6913 13.288 53.6913 11.848C53.6913 10.36 52.5873 9.544 50.4273 9.544ZM51.7233 24.712C53.8353 24.712 55.0353 23.848 55.0353 22.312C55.0353 20.728 53.8353 19.912 51.7233 19.912H45.7713V24.712H51.7233ZM82.828 31.624C73.66 31.624 66.94 25.48 66.94 17.128C66.94 8.728 73.66 2.632 82.828 2.632C91.996 2.632 98.716 8.728 98.716 17.128C98.716 25.48 91.996 31.624 82.828 31.624ZM82.828 24.232C86.62 24.232 89.356 21.304 89.356 17.128C89.356 12.952 86.62 10.024 82.828 10.024C79.036 10.024 76.252 12.952 76.252 17.128C76.252 21.304 79.036 24.232 82.828 24.232ZM116.654 31.624C108.014 31.624 102.974 26.68 102.974 18.952V3.256H112.238V18.664C112.238 22.36 113.774 24.232 116.75 24.232C119.678 24.232 121.214 22.36 121.214 18.664V3.256H130.286V18.952C130.286 26.68 125.294 31.624 116.654 31.624ZM141.684 31V10.264H133.332V3.256H159.3V10.264H150.948V31H141.684ZM210.222 31H201.726L201.63 17.944L195.39 28.264H191.262L185.022 18.424V31H176.526V3.256H184.206L193.47 18.136L202.446 3.256H210.174L210.222 31ZM225.584 24.184H239.744V31H216.464V3.256H239.216V10.072H225.584V13.72H237.584V20.152H225.584V24.184Z" fill="white"/>
</svg>
