<svg width="297" height="32" viewBox="0 0 297 32" fill="none" xmlns="http://www.w3.org/2000/svg">
<path opacity="0.4" d="M20.4195 29.624C11.3475 29.624 4.6275 23.576 4.6275 15.128C4.6275 6.68 11.3475 0.631999 20.4195 0.631999C25.7955 0.631999 29.9235 2.168 32.8995 6.056L26.9475 11.288C25.1715 9.08 23.1555 8.024 20.7555 8.024C16.8195 8.024 13.9395 10.76 13.9395 15.128C13.9395 19.496 16.8195 22.232 20.7555 22.232C23.1555 22.232 25.1715 21.176 26.9475 18.968L32.8995 24.152C29.9235 28.088 25.7955 29.624 20.4195 29.624ZM50.328 29.624C41.16 29.624 34.44 23.48 34.44 15.128C34.44 6.728 41.16 0.631999 50.328 0.631999C59.496 0.631999 66.216 6.728 66.216 15.128C66.216 23.48 59.496 29.624 50.328 29.624ZM50.328 22.232C54.12 22.232 56.856 19.304 56.856 15.128C56.856 10.952 54.12 8.024 50.328 8.024C46.536 8.024 43.752 10.952 43.752 15.128C43.752 19.304 46.536 22.232 50.328 22.232ZM89.3378 1.256H98.4098V29H90.7778L79.7858 16.04V29H70.7138V1.256H78.3458L89.3378 14.312V1.256ZM110.027 29V8.264H101.675V1.256H127.643V8.264H119.291V29H110.027ZM150.238 29L148.27 24.104H136.366L134.35 29H125.47L137.806 1.256H146.926L159.262 29H150.238ZM138.958 17.672H145.678L142.366 9.32L138.958 17.672ZM175.388 29.624C166.316 29.624 159.596 23.576 159.596 15.128C159.596 6.68 166.316 0.631999 175.388 0.631999C180.764 0.631999 184.892 2.168 187.868 6.056L181.916 11.288C180.14 9.08 178.124 8.024 175.724 8.024C171.788 8.024 168.908 10.76 168.908 15.128C168.908 19.496 171.788 22.232 175.724 22.232C178.124 22.232 180.14 21.176 181.916 18.968L187.868 24.152C184.892 28.088 180.764 29.624 175.388 29.624ZM197.168 29V8.264H188.816V1.256H214.784V8.264H206.432V29H197.168ZM265.707 29H257.211L257.115 15.944L250.875 26.264H246.747L240.507 16.424V29H232.011V1.256H239.691L248.955 16.136L257.931 1.256H265.659L265.707 29ZM281.068 22.184H295.228V29H271.948V1.256H294.7V8.072H281.068V11.72H293.068V18.152H281.068V22.184Z" fill="white"/>
<path d="M17.4195 31.624C8.3475 31.624 1.6275 25.576 1.6275 17.128C1.6275 8.68 8.3475 2.632 17.4195 2.632C22.7955 2.632 26.9235 4.168 29.8995 8.056L23.9475 13.288C22.1715 11.08 20.1555 10.024 17.7555 10.024C13.8195 10.024 10.9395 12.76 10.9395 17.128C10.9395 21.496 13.8195 24.232 17.7555 24.232C20.1555 24.232 22.1715 23.176 23.9475 20.968L29.8995 26.152C26.9235 30.088 22.7955 31.624 17.4195 31.624ZM47.328 31.624C38.16 31.624 31.44 25.48 31.44 17.128C31.44 8.728 38.16 2.632 47.328 2.632C56.496 2.632 63.216 8.728 63.216 17.128C63.216 25.48 56.496 31.624 47.328 31.624ZM47.328 24.232C51.12 24.232 53.856 21.304 53.856 17.128C53.856 12.952 51.12 10.024 47.328 10.024C43.536 10.024 40.752 12.952 40.752 17.128C40.752 21.304 43.536 24.232 47.328 24.232ZM86.3378 3.256H95.4098V31H87.7778L76.7858 18.04V31H67.7138V3.256H75.3458L86.3378 16.312V3.256ZM107.027 31V10.264H98.6753V3.256H124.643V10.264H116.291V31H107.027ZM147.238 31L145.27 26.104H133.366L131.35 31H122.47L134.806 3.256H143.926L156.262 31H147.238ZM135.958 19.672H142.678L139.366 11.32L135.958 19.672ZM172.388 31.624C163.316 31.624 156.596 25.576 156.596 17.128C156.596 8.68 163.316 2.632 172.388 2.632C177.764 2.632 181.892 4.168 184.868 8.056L178.916 13.288C177.14 11.08 175.124 10.024 172.724 10.024C168.788 10.024 165.908 12.76 165.908 17.128C165.908 21.496 168.788 24.232 172.724 24.232C175.124 24.232 177.14 23.176 178.916 20.968L184.868 26.152C181.892 30.088 177.764 31.624 172.388 31.624ZM194.168 31V10.264H185.816V3.256H211.784V10.264H203.432V31H194.168ZM262.707 31H254.211L254.115 17.944L247.875 28.264H243.747L237.507 18.424V31H229.011V3.256H236.691L245.955 18.136L254.931 3.256H262.659L262.707 31ZM278.068 24.184H292.228V31H268.948V3.256H291.7V10.072H278.068V13.72H290.068V20.152H278.068V24.184Z" fill="white"/>
</svg>
