<svg width="1120" height="306" viewBox="0 0 1120 306" fill="none" xmlns="http://www.w3.org/2000/svg">
<path d="M250.136 92.4V61.425H286.011V113.225C271.136 123.375 250.661 128.8 232.636 128.8C193.086 128.8 164.211 102.375 164.211 64.75C164.211 27.125 193.086 0.699996 233.511 0.699996C257.661 0.699996 277.086 9.09999 289.511 24.325L263.086 47.6C255.386 38.675 246.461 34.125 235.611 34.125C217.411 34.125 205.861 45.85 205.861 64.75C205.861 83.125 217.411 95.375 235.086 95.375C240.161 95.375 245.061 94.5 250.136 92.4ZM344.208 94.85H405.458V126H303.608V3.49999H403.183V34.65H344.208V49H396.008V78.75H344.208V94.85ZM485.582 128.8C445.682 128.8 416.457 101.85 416.457 64.75C416.457 27.65 445.682 0.699996 485.582 0.699996C525.482 0.699996 554.707 27.65 554.707 64.75C554.707 101.85 525.482 128.8 485.582 128.8ZM485.582 95.375C500.807 95.375 513.057 83.825 513.057 64.75C513.057 45.675 500.807 34.125 485.582 34.125C470.357 34.125 458.107 45.675 458.107 64.75C458.107 83.825 470.357 95.375 485.582 95.375ZM643.022 126L622.197 95.2H610.997V126H569.697V3.49999H628.672C662.797 3.49999 684.497 21.35 684.497 49.7C684.497 67.375 676.097 80.675 661.397 88.2L687.122 126H643.022ZM642.847 49.7C642.847 40.775 637.422 35.35 626.047 35.35H610.997V64.05H626.047C637.422 64.05 642.847 58.625 642.847 49.7ZM781.118 92.4V61.425H816.993V113.225C802.118 123.375 781.643 128.8 763.618 128.8C724.068 128.8 695.193 102.375 695.193 64.75C695.193 27.125 724.068 0.699996 764.493 0.699996C788.643 0.699996 808.068 9.09999 820.493 24.325L794.068 47.6C786.368 38.675 777.443 34.125 766.593 34.125C748.393 34.125 736.843 45.85 736.843 64.75C736.843 83.125 748.393 95.375 766.068 95.375C771.143 95.375 776.043 94.5 781.118 92.4ZM875.19 94.85H936.44V126H834.59V3.49999H934.165V34.65H875.19V49H926.99V78.75H875.19V94.85Z" fill="white"/>
<path d="M77.45 298.3C37.55 298.3 8.325 271.35 8.325 234.25C8.325 197.15 37.55 170.2 77.45 170.2C117.35 170.2 146.575 197.15 146.575 234.25C146.575 271.35 117.35 298.3 77.45 298.3ZM77.45 264.875C92.675 264.875 104.925 253.325 104.925 234.25C104.925 215.175 92.675 203.625 77.45 203.625C62.225 203.625 49.975 215.175 49.975 234.25C49.975 253.325 62.225 264.875 77.45 264.875ZM210.06 263.475H268.86V295.5H156.335V270.125L212.335 205.025H158.085V173H266.06V198.375L210.06 263.475ZM344.222 298.3C304.322 298.3 275.097 271.35 275.097 234.25C275.097 197.15 304.322 170.2 344.222 170.2C384.122 170.2 413.347 197.15 413.347 234.25C413.347 271.35 384.122 298.3 344.222 298.3ZM344.222 264.875C359.447 264.875 371.697 253.325 371.697 234.25C371.697 215.175 359.447 203.625 344.222 203.625C328.997 203.625 316.747 215.175 316.747 234.25C316.747 253.325 328.997 264.875 344.222 264.875ZM468.937 264.35H530.187V295.5H428.337V173H527.912V204.15H468.937V218.5H520.737V248.25H468.937V264.35ZM693.086 295.5H655.461L655.111 239.675L628.511 284.475H610.311L583.711 241.6V295.5H546.086V173H580.036L619.936 238.275L658.786 173H692.736L693.086 295.5ZM753.654 264.35H814.904V295.5H713.054V173H812.629V204.15H753.654V218.5H805.454V248.25H753.654V264.35ZM911.303 173H951.553V295.5H917.603L871.053 239.85V295.5H830.803V173H864.753L911.303 228.65V173ZM1063.15 295.5L1054.93 274.15H1008.38L1000.15 295.5H958.153L1011.7 173H1052.3L1105.85 295.5H1063.15ZM1019.75 244.4H1043.55L1031.65 213.6L1019.75 244.4Z" fill="white"/>
<g opacity="0.2">
<path d="M250.886 113.4V82.425H286.761V134.225C271.886 144.375 251.411 149.8 233.386 149.8C193.836 149.8 164.961 123.375 164.961 85.75C164.961 48.125 193.836 21.7 234.261 21.7C258.411 21.7 277.836 30.1 290.261 45.325L263.836 68.6C256.136 59.675 247.211 55.125 236.361 55.125C218.161 55.125 206.611 66.85 206.611 85.75C206.611 104.125 218.161 116.375 235.836 116.375C240.911 116.375 245.811 115.5 250.886 113.4ZM344.958 115.85H406.208V147H304.358V24.5H403.933V55.65H344.958V70H396.758V99.75H344.958V115.85ZM486.332 149.8C446.432 149.8 417.207 122.85 417.207 85.75C417.207 48.65 446.432 21.7 486.332 21.7C526.232 21.7 555.457 48.65 555.457 85.75C555.457 122.85 526.232 149.8 486.332 149.8ZM486.332 116.375C501.557 116.375 513.807 104.825 513.807 85.75C513.807 66.675 501.557 55.125 486.332 55.125C471.107 55.125 458.857 66.675 458.857 85.75C458.857 104.825 471.107 116.375 486.332 116.375ZM643.772 147L622.947 116.2H611.747V147H570.447V24.5H629.422C663.547 24.5 685.247 42.35 685.247 70.7C685.247 88.375 676.847 101.675 662.147 109.2L687.872 147H643.772ZM643.597 70.7C643.597 61.775 638.172 56.35 626.797 56.35H611.747V85.05H626.797C638.172 85.05 643.597 79.625 643.597 70.7ZM781.868 113.4V82.425H817.743V134.225C802.868 144.375 782.393 149.8 764.368 149.8C724.818 149.8 695.943 123.375 695.943 85.75C695.943 48.125 724.818 21.7 765.243 21.7C789.393 21.7 808.818 30.1 821.243 45.325L794.818 68.6C787.118 59.675 778.193 55.125 767.343 55.125C749.143 55.125 737.593 66.85 737.593 85.75C737.593 104.125 749.143 116.375 766.818 116.375C771.893 116.375 776.793 115.5 781.868 113.4ZM875.94 115.85H937.19V147H835.34V24.5H934.915V55.65H875.94V70H927.74V99.75H875.94V115.85Z" fill="white"/>
<path d="M90.7 305.3C50.8 305.3 21.575 278.35 21.575 241.25C21.575 204.15 50.8 177.2 90.7 177.2C130.6 177.2 159.825 204.15 159.825 241.25C159.825 278.35 130.6 305.3 90.7 305.3ZM90.7 271.875C105.925 271.875 118.175 260.325 118.175 241.25C118.175 222.175 105.925 210.625 90.7 210.625C75.475 210.625 63.225 222.175 63.225 241.25C63.225 260.325 75.475 271.875 90.7 271.875ZM223.31 270.475H282.11V302.5H169.585V277.125L225.585 212.025H171.335V180H279.31V205.375L223.31 270.475ZM357.472 305.3C317.572 305.3 288.347 278.35 288.347 241.25C288.347 204.15 317.572 177.2 357.472 177.2C397.372 177.2 426.597 204.15 426.597 241.25C426.597 278.35 397.372 305.3 357.472 305.3ZM357.472 271.875C372.697 271.875 384.947 260.325 384.947 241.25C384.947 222.175 372.697 210.625 357.472 210.625C342.247 210.625 329.997 222.175 329.997 241.25C329.997 260.325 342.247 271.875 357.472 271.875ZM482.187 271.35H543.437V302.5H441.587V180H541.162V211.15H482.187V225.5H533.987V255.25H482.187V271.35ZM706.336 302.5H668.711L668.361 246.675L641.761 291.475H623.561L596.961 248.6V302.5H559.336V180H593.286L633.186 245.275L672.036 180H705.986L706.336 302.5ZM766.904 271.35H828.154V302.5H726.304V180H825.879V211.15H766.904V225.5H818.704V255.25H766.904V271.35ZM924.553 180H964.803V302.5H930.853L884.303 246.85V302.5H844.053V180H878.003L924.553 235.65V180ZM1076.4 302.5L1068.18 281.15H1021.63L1013.4 302.5H971.403L1024.95 180H1065.55L1119.1 302.5H1076.4ZM1033 251.4H1056.8L1044.9 220.6L1033 251.4Z" fill="white"/>
</g>
</svg>
