<svg width="110" height="49" viewBox="0 0 110 49" fill="none" xmlns="http://www.w3.org/2000/svg">
<path opacity="0.35" d="M8.098 20V8.626H3.588V4.6H17.8V8.626H13.29V20H8.098ZM24.2525 16.084H31.9525V20H19.1485V4.6H31.6665V8.516H24.2525V10.32H30.7645V14.06H24.2525V16.084ZM41.9153 20.352C36.9653 20.352 33.3353 17.03 33.3353 12.3C33.3353 7.57 36.9653 4.248 41.9153 4.248C44.9293 4.248 47.3053 5.348 48.8233 7.328L45.5453 10.254C44.6433 9.11 43.5653 8.45 42.1793 8.45C40.0233 8.45 38.5713 9.946 38.5713 12.3C38.5713 14.654 40.0233 16.15 42.1793 16.15C43.5653 16.15 44.6433 15.49 45.5453 14.346L48.8233 17.272C47.3053 19.252 44.9293 20.352 41.9153 20.352ZM60.3104 4.6H65.5024V20H60.3104V14.324H55.5144V20H50.3224V4.6H55.5144V10.056H60.3104V4.6ZM30.2654 35.948C32.0694 36.608 33.1254 37.928 33.1254 39.754C33.1254 42.438 30.8594 44 26.6134 44H17.9454V28.6H26.1734C30.4194 28.6 32.3994 30.294 32.3994 32.626C32.3994 34.056 31.6734 35.244 30.2654 35.948ZM25.4694 32.23H23.0494V34.518H25.4694C26.6354 34.518 27.1634 34.122 27.1634 33.374C27.1634 32.626 26.6354 32.23 25.4694 32.23ZM26.1734 40.37C27.3174 40.37 27.8894 39.952 27.8894 39.16C27.8894 38.368 27.3174 37.95 26.1734 37.95H23.0494V40.37H26.1734ZM34.961 44V28.6H40.153V44H34.961ZM48.3944 44.352C45.8204 44.352 43.2244 43.714 41.6844 42.768L43.3564 38.984C44.8084 39.842 46.7444 40.392 48.4384 40.392C49.9124 40.392 50.4404 40.084 50.4404 39.556C50.4404 37.62 41.9264 39.182 41.9264 33.44C41.9264 30.58 44.3244 28.248 49.0984 28.248C51.1664 28.248 53.3004 28.688 54.9064 29.59L53.3444 33.352C51.8264 32.582 50.3964 32.208 49.0544 32.208C47.5364 32.208 47.0524 32.648 47.0524 33.176C47.0524 35.024 55.5664 33.484 55.5664 39.16C55.5664 41.976 53.1684 44.352 48.3944 44.352ZM67.0994 28.6H72.2914V44H67.0994V38.324H62.3034V44H57.1114V28.6H62.3034V34.056H67.0994V28.6ZM82.8671 44.352C77.8511 44.352 74.1771 40.964 74.1771 36.3C74.1771 31.636 77.8511 28.248 82.8671 28.248C87.8831 28.248 91.5571 31.636 91.5571 36.3C91.5571 40.964 87.8831 44.352 82.8671 44.352ZM82.8671 40.15C84.7811 40.15 86.3211 38.698 86.3211 36.3C86.3211 33.902 84.7811 32.45 82.8671 32.45C80.9531 32.45 79.4131 33.902 79.4131 36.3C79.4131 38.698 80.9531 40.15 82.8671 40.15ZM100.856 28.6C105.146 28.6 107.874 30.844 107.874 34.408C107.874 37.972 105.146 40.216 100.856 40.216H98.6335V44H93.4415V28.6H100.856ZM100.526 36.212C101.956 36.212 102.638 35.53 102.638 34.408C102.638 33.286 101.956 32.604 100.526 32.604H98.6335V36.212H100.526Z" fill="white"/>
<path d="M5.098 21V9.626H0.588V5.6H14.8V9.626H10.29V21H5.098ZM21.2525 17.084H28.9525V21H16.1485V5.6H28.6665V9.516H21.2525V11.32H27.7645V15.06H21.2525V17.084ZM38.9153 21.352C33.9653 21.352 30.3353 18.03 30.3353 13.3C30.3353 8.57 33.9653 5.248 38.9153 5.248C41.9293 5.248 44.3053 6.348 45.8233 8.328L42.5453 11.254C41.6433 10.11 40.5653 9.45 39.1793 9.45C37.0233 9.45 35.5713 10.946 35.5713 13.3C35.5713 15.654 37.0233 17.15 39.1793 17.15C40.5653 17.15 41.6433 16.49 42.5453 15.346L45.8233 18.272C44.3053 20.252 41.9293 21.352 38.9153 21.352ZM57.3104 5.6H62.5024V21H57.3104V15.324H52.5144V21H47.3224V5.6H52.5144V11.056H57.3104V5.6ZM27.2654 36.948C29.0694 37.608 30.1254 38.928 30.1254 40.754C30.1254 43.438 27.8594 45 23.6134 45H14.9454V29.6H23.1734C27.4194 29.6 29.3994 31.294 29.3994 33.626C29.3994 35.056 28.6734 36.244 27.2654 36.948ZM22.4694 33.23H20.0494V35.518H22.4694C23.6354 35.518 24.1634 35.122 24.1634 34.374C24.1634 33.626 23.6354 33.23 22.4694 33.23ZM23.1734 41.37C24.3174 41.37 24.8894 40.952 24.8894 40.16C24.8894 39.368 24.3174 38.95 23.1734 38.95H20.0494V41.37H23.1734ZM31.961 45V29.6H37.153V45H31.961ZM45.3944 45.352C42.8204 45.352 40.2244 44.714 38.6844 43.768L40.3564 39.984C41.8084 40.842 43.7444 41.392 45.4384 41.392C46.9124 41.392 47.4404 41.084 47.4404 40.556C47.4404 38.62 38.9264 40.182 38.9264 34.44C38.9264 31.58 41.3244 29.248 46.0984 29.248C48.1664 29.248 50.3004 29.688 51.9064 30.59L50.3444 34.352C48.8264 33.582 47.3964 33.208 46.0544 33.208C44.5364 33.208 44.0524 33.648 44.0524 34.176C44.0524 36.024 52.5664 34.484 52.5664 40.16C52.5664 42.976 50.1684 45.352 45.3944 45.352ZM64.0994 29.6H69.2914V45H64.0994V39.324H59.3034V45H54.1114V29.6H59.3034V35.056H64.0994V29.6ZM79.8671 45.352C74.8511 45.352 71.1771 41.964 71.1771 37.3C71.1771 32.636 74.8511 29.248 79.8671 29.248C84.8831 29.248 88.5571 32.636 88.5571 37.3C88.5571 41.964 84.8831 45.352 79.8671 45.352ZM79.8671 41.15C81.7811 41.15 83.3211 39.698 83.3211 37.3C83.3211 34.902 81.7811 33.45 79.8671 33.45C77.9531 33.45 76.4131 34.902 76.4131 37.3C76.4131 39.698 77.9531 41.15 79.8671 41.15ZM97.8555 29.6C102.146 29.6 104.874 31.844 104.874 35.408C104.874 38.972 102.146 41.216 97.8555 41.216H95.6335V45H90.4415V29.6H97.8555ZM97.5255 37.212C98.9555 37.212 99.6375 36.53 99.6375 35.408C99.6375 34.286 98.9555 33.604 97.5255 33.604H95.6335V37.212H97.5255Z" fill="white"/>
</svg>
