<svg width="574" height="202" viewBox="0 0 574 202" fill="none" xmlns="http://www.w3.org/2000/svg">
<path opacity="0.3" d="M115.216 20.016H139.024L114.704 94H88.336L75.664 52.656L62.48 94H36.112L11.792 20.016H37.136L50.576 63.28L64.784 20.016H87.568L101.136 63.92L115.216 20.016ZM149.195 94V20.016H173.899V46.64H198.347V20.016H223.051V94H198.347V66.352H173.899V94H149.195ZM277.583 95.664C253.135 95.664 235.215 79.28 235.215 57.008C235.215 34.608 253.135 18.352 277.583 18.352C302.031 18.352 319.951 34.608 319.951 57.008C319.951 79.28 302.031 95.664 277.583 95.664ZM277.583 75.952C287.695 75.952 294.991 68.144 294.991 57.008C294.991 45.872 287.695 38.064 277.583 38.064C267.471 38.064 260.047 45.872 260.047 57.008C260.047 68.144 267.471 75.952 277.583 75.952ZM369.195 94V20.016H393.899V94H369.195ZM437.066 95.664C424.906 95.664 412.106 92.592 404.682 87.984L412.874 70.192C419.914 74.544 429.258 77.232 438.346 77.232C445.514 77.232 447.946 75.184 447.946 72.752C447.946 62.768 406.09 71.088 406.09 43.056C406.09 28.976 419.146 18.352 441.29 18.352C451.018 18.352 461.386 20.272 469.066 24.752L461.514 42.544C454.602 38.32 447.306 36.784 440.394 36.784C433.482 36.784 430.41 38.96 430.41 41.776C430.41 51.248 472.266 43.44 472.266 70.704C472.266 84.784 460.106 95.664 437.066 95.664ZM66.576 170.288V151.728H88.336V182.192C79.504 188.336 66.96 191.664 56.848 191.664C30.992 191.664 13.84 175.28 13.84 153.008C13.84 130.608 31.76 114.352 56.976 114.352C72.08 114.352 82.96 119.088 90.384 128.432L74.256 142.256C69.52 136.624 63.888 134.064 57.104 134.064C46.352 134.064 38.672 141.36 38.672 153.008C38.672 164.4 45.84 171.952 57.232 171.952C60.56 171.952 63.632 171.44 66.576 170.288ZM127.515 171.824H165.275V190H103.195V116.016H163.867V134.192H127.515V143.92H159.515V161.072H127.515V171.824ZM215.583 191.664C191.135 191.664 173.215 175.28 173.215 153.008C173.215 130.608 191.135 114.352 215.583 114.352C240.031 114.352 257.951 130.608 257.951 153.008C257.951 175.28 240.031 191.664 215.583 191.664ZM215.583 171.952C225.695 171.952 232.991 164.144 232.991 153.008C232.991 141.872 225.695 134.064 215.583 134.064C205.471 134.064 198.047 141.872 198.047 153.008C198.047 164.144 205.471 171.952 215.583 171.952ZM315.129 190L302.201 171.312H294.649V190H269.945V116.016H305.785C326.649 116.016 339.961 126.64 339.961 143.792C339.961 154.544 334.713 162.608 325.625 167.216L341.625 190H315.129ZM315.257 143.792C315.257 138.16 311.545 134.576 303.993 134.576H294.649V153.136H303.993C311.545 153.136 315.257 149.552 315.257 143.792ZM401.701 170.288V151.728H423.461V182.192C414.629 188.336 402.085 191.664 391.973 191.664C366.117 191.664 348.965 175.28 348.965 153.008C348.965 130.608 366.885 114.352 392.101 114.352C407.205 114.352 418.085 119.088 425.509 128.432L409.381 142.256C404.645 136.624 399.013 134.064 392.229 134.064C381.477 134.064 373.797 141.36 373.797 153.008C373.797 164.4 380.965 171.952 392.357 171.952C395.685 171.952 398.757 171.44 401.701 170.288ZM462.64 171.824H500.4V190H438.32V116.016H498.992V134.192H462.64V143.92H494.64V161.072H462.64V171.824ZM527.159 159.92C527.159 148.144 542.647 145.2 542.647 138.16C542.647 135.088 539.575 133.168 534.199 133.168C528.439 133.168 523.959 135.472 521.143 139.312L503.479 129.2C509.751 120.368 521.399 114.864 537.143 114.864C554.551 114.864 567.991 121.392 567.991 133.808C567.991 148.784 549.303 151.088 549.303 159.92H527.159ZM538.679 191.152C529.591 191.152 524.215 185.136 524.215 178.736C524.215 172.336 529.591 166.576 538.679 166.576C547.895 166.576 553.271 172.336 553.271 178.736C553.271 185.136 547.895 191.152 538.679 191.152Z" fill="white"/>
<path d="M105.216 30.016H129.024L104.704 104H78.336L65.664 62.656L52.48 104H26.112L1.792 30.016H27.136L40.576 73.28L54.784 30.016H77.568L91.136 73.92L105.216 30.016ZM139.195 104V30.016H163.899V56.64H188.347V30.016H213.051V104H188.347V76.352H163.899V104H139.195ZM267.583 105.664C243.135 105.664 225.215 89.28 225.215 67.008C225.215 44.608 243.135 28.352 267.583 28.352C292.031 28.352 309.951 44.608 309.951 67.008C309.951 89.28 292.031 105.664 267.583 105.664ZM267.583 85.952C277.695 85.952 284.991 78.144 284.991 67.008C284.991 55.872 277.695 48.064 267.583 48.064C257.471 48.064 250.047 55.872 250.047 67.008C250.047 78.144 257.471 85.952 267.583 85.952ZM359.195 104V30.016H383.899V104H359.195ZM427.066 105.664C414.906 105.664 402.106 102.592 394.682 97.984L402.874 80.192C409.914 84.544 419.258 87.232 428.346 87.232C435.514 87.232 437.946 85.184 437.946 82.752C437.946 72.768 396.09 81.088 396.09 53.056C396.09 38.976 409.146 28.352 431.29 28.352C441.018 28.352 451.386 30.272 459.066 34.752L451.514 52.544C444.602 48.32 437.306 46.784 430.394 46.784C423.482 46.784 420.41 48.96 420.41 51.776C420.41 61.248 462.266 53.44 462.266 80.704C462.266 94.784 450.106 105.664 427.066 105.664ZM56.576 180.288V161.728H78.336V192.192C69.504 198.336 56.96 201.664 46.848 201.664C20.992 201.664 3.84 185.28 3.84 163.008C3.84 140.608 21.76 124.352 46.976 124.352C62.08 124.352 72.96 129.088 80.384 138.432L64.256 152.256C59.52 146.624 53.888 144.064 47.104 144.064C36.352 144.064 28.672 151.36 28.672 163.008C28.672 174.4 35.84 181.952 47.232 181.952C50.56 181.952 53.632 181.44 56.576 180.288ZM117.515 181.824H155.275V200H93.195V126.016H153.867V144.192H117.515V153.92H149.515V171.072H117.515V181.824ZM205.583 201.664C181.135 201.664 163.215 185.28 163.215 163.008C163.215 140.608 181.135 124.352 205.583 124.352C230.031 124.352 247.951 140.608 247.951 163.008C247.951 185.28 230.031 201.664 205.583 201.664ZM205.583 181.952C215.695 181.952 222.991 174.144 222.991 163.008C222.991 151.872 215.695 144.064 205.583 144.064C195.471 144.064 188.047 151.872 188.047 163.008C188.047 174.144 195.471 181.952 205.583 181.952ZM305.129 200L292.201 181.312H284.649V200H259.945V126.016H295.785C316.649 126.016 329.961 136.64 329.961 153.792C329.961 164.544 324.713 172.608 315.625 177.216L331.625 200H305.129ZM305.257 153.792C305.257 148.16 301.545 144.576 293.993 144.576H284.649V163.136H293.993C301.545 163.136 305.257 159.552 305.257 153.792ZM391.701 180.288V161.728H413.461V192.192C404.629 198.336 392.085 201.664 381.973 201.664C356.117 201.664 338.965 185.28 338.965 163.008C338.965 140.608 356.885 124.352 382.101 124.352C397.205 124.352 408.085 129.088 415.509 138.432L399.381 152.256C394.645 146.624 389.013 144.064 382.229 144.064C371.477 144.064 363.797 151.36 363.797 163.008C363.797 174.4 370.965 181.952 382.357 181.952C385.685 181.952 388.757 181.44 391.701 180.288ZM452.64 181.824H490.4V200H428.32V126.016H488.992V144.192H452.64V153.92H484.64V171.072H452.64V181.824ZM517.159 169.92C517.159 158.144 532.647 155.2 532.647 148.16C532.647 145.088 529.575 143.168 524.199 143.168C518.439 143.168 513.959 145.472 511.143 149.312L493.479 139.2C499.751 130.368 511.399 124.864 527.143 124.864C544.551 124.864 557.991 131.392 557.991 143.808C557.991 158.784 539.303 161.088 539.303 169.92H517.159ZM528.679 201.152C519.591 201.152 514.215 195.136 514.215 188.736C514.215 182.336 519.591 176.576 528.679 176.576C537.895 176.576 543.271 182.336 543.271 188.736C543.271 195.136 537.895 201.152 528.679 201.152Z" fill="white"/>
</svg>
